<svg xmlns="http://www.w3.org/2000/svg" width="1680" height="1500" viewBox="0 0 1680 1500">
  <rect width="1680" height="1500" fill="#f4f7fb"/>

  <style>
    .font { font-family: "Microsoft YaHei", Arial, sans-serif; }
    .title { font-size: 26px; font-weight: 700; fill: #182033; }
    .h2 { font-size: 21px; font-weight: 700; fill: #182033; }
    .body { font-size: 15px; fill: #475569; }
    .muted { font-size: 14px; fill: #8a96a8; }
    .small { font-size: 13px; fill: #607086; }
    .label { font-size: 14px; font-weight: 700; fill: #344054; }
    .white { fill: #ffffff; }
    .panel { fill: #ffffff; stroke: #d9e1ec; stroke-width: 2; }
    .line { stroke: #edf1f5; stroke-width: 1; }
  </style>

  <rect x="0" y="0" width="256" height="1500" fill="#102033"/>
  <rect x="28" y="28" width="42" height="42" rx="8" fill="#2f74c0"/>
  <text x="49" y="56" text-anchor="middle" class="font" font-size="18" font-weight="700" fill="#ffffff">LOGO</text>
  <text x="84" y="50" class="font" font-size="22" font-weight="700" fill="#ffffff">飞渡</text>
  <text x="84" y="73" class="font" font-size="13" fill="#9fb1c8">合同智能平台</text>

  <text x="28" y="128" class="font" font-size="13" fill="#7890ad">主导航</text>
  <text x="44" y="182" class="font" font-size="16" fill="#b8c7da">工作台</text>
  <rect x="16" y="204" width="224" height="48" rx="8" fill="#223a56"/>
  <rect x="16" y="204" width="4" height="48" rx="2" fill="#4aa3ff"/>
  <text x="44" y="234" class="font" font-size="16" font-weight="700" fill="#ffffff">合同分析</text>
  <text x="44" y="282" class="font" font-size="16" fill="#b8c7da">问题审查</text>
  <text x="44" y="330" class="font" font-size="16" fill="#b8c7da">导出中心</text>
  <text x="44" y="378" class="font" font-size="16" fill="#b8c7da">设置</text>

  <rect x="20" y="1348" width="216" height="92" rx="8" fill="#172b44"/>
  <text x="40" y="1384" class="font" font-size="14" fill="#b8c7da">v2 重点</text>
  <text x="40" y="1412" class="font" font-size="13" fill="#7890ad">批量分析、失败隔离</text>
  <text x="40" y="1436" class="font" font-size="13" fill="#7890ad">同名合同可区分导出</text>

  <rect x="256" y="0" width="1424" height="84" fill="#ffffff"/>
  <line x1="256" y1="84" x2="1680" y2="84" stroke="#d9e1ec" stroke-width="2"/>
  <text x="296" y="38" class="font muted">合同分析 / 批量分析</text>
  <text x="296" y="66" class="font title">上传一批合同并生成结构化分析结果</text>
  <rect x="1348" y="24" width="128" height="36" rx="18" fill="#eef6ff"/>
  <text x="1412" y="47" text-anchor="middle" class="font" font-size="14" fill="#275e9f">V2.0 批量</text>
  <rect x="1496" y="24" width="136" height="36" rx="18" fill="#f5f7fa"/>
  <text x="1564" y="47" text-anchor="middle" class="font" font-size="14" fill="#607086">最多 20 份</text>

  <text x="296" y="126" class="font h2">视图一：合同分析页</text>
  <text x="480" y="126" class="font muted">统一支持单合同和多合同，左侧看批量任务，右侧看当前合同详情和导出</text>

  <rect x="296" y="152" width="560" height="214" rx="8" class="panel"/>
  <text x="328" y="190" class="font h2">上传合同</text>
  <text x="438" y="190" class="font muted">支持多选或拖拽，DOCX 优先</text>
  <rect x="328" y="214" width="496" height="104" rx="8" fill="#f8fbff" stroke="#7aa7d9" stroke-width="3" stroke-dasharray="12 10"/>
  <text x="576" y="258" text-anchor="middle" class="font" font-size="24" font-weight="700" fill="#275e9f">点击或拖拽上传多份合同</text>
  <text x="576" y="292" text-anchor="middle" class="font body">单文件不超过 20MB，单批建议不超过 20 份</text>
  <rect x="328" y="332" width="154" height="28" rx="14" fill="#eef6ff"/>
  <text x="405" y="351" text-anchor="middle" class="font small">已选择 5 份</text>
  <rect x="496" y="332" width="154" height="28" rx="14" fill="#f5f7fa"/>
  <text x="573" y="351" text-anchor="middle" class="font small">1 份待校验</text>
  <rect x="664" y="332" width="160" height="28" rx="14" fill="#fff7f3"/>
  <text x="744" y="351" text-anchor="middle" class="font small">同名文件已标记</text>

  <rect x="884" y="152" width="756" height="214" rx="8" class="panel"/>
  <text x="916" y="190" class="font h2">批量概览</text>
  <text x="1026" y="190" class="font muted">同一批次内所有合同的处理状态</text>
  <rect x="916" y="220" width="134" height="84" rx="8" fill="#eef6ff"/>
  <text x="983" y="254" text-anchor="middle" class="font" font-size="24" font-weight="700" fill="#275e9f">5</text>
  <text x="983" y="284" text-anchor="middle" class="font small">合同总数</text>
  <rect x="1068" y="220" width="134" height="84" rx="8" fill="#eefaf4"/>
  <text x="1135" y="254" text-anchor="middle" class="font" font-size="24" font-weight="700" fill="#227a48">3</text>
  <text x="1135" y="284" text-anchor="middle" class="font small">分析完成</text>
  <rect x="1220" y="220" width="134" height="84" rx="8" fill="#fff7f3"/>
  <text x="1287" y="254" text-anchor="middle" class="font" font-size="24" font-weight="700" fill="#a94725">1</text>
  <text x="1287" y="284" text-anchor="middle" class="font small">分析失败</text>
  <rect x="1372" y="220" width="134" height="84" rx="8" fill="#f5f7fa"/>
  <text x="1439" y="254" text-anchor="middle" class="font" font-size="24" font-weight="700" fill="#475569">1</text>
  <text x="1439" y="284" text-anchor="middle" class="font small">等待分析</text>
  <rect x="1524" y="220" width="84" height="84" rx="8" fill="#f7f2ff"/>
  <text x="1566" y="254" text-anchor="middle" class="font" font-size="24" font-weight="700" fill="#6f45a8">7</text>
  <text x="1566" y="284" text-anchor="middle" class="font small">问题</text>
  <rect x="916" y="324" width="692" height="12" rx="6" fill="#e7edf5"/>
  <rect x="916" y="324" width="414" height="12" rx="6" fill="#2f74c0"/>
  <text x="916" y="354" class="font muted">批次ID：b_20260618_093012　当前状态：部分合同分析完成</text>

  <rect x="296" y="394" width="836" height="382" rx="8" class="panel"/>
  <text x="328" y="432" class="font h2">批量任务列表</text>
  <text x="462" y="432" class="font muted">点击任意合同查看右侧详情；失败项可单独重试</text>
  <rect x="328" y="458" width="772" height="42" fill="#eef3f8"/>
  <text x="348" y="485" class="font label">序号</text>
  <text x="424" y="485" class="font label">合同名称</text>
  <text x="650" y="485" class="font label">状态</text>
  <text x="754" y="485" class="font label">问题</text>
  <text x="842" y="485" class="font label">付款</text>
  <text x="930" y="485" class="font label">置信度</text>
  <text x="1020" y="485" class="font label">操作</text>

  <rect x="328" y="500" width="772" height="54" fill="#f8fbff"/>
  <text x="350" y="533" class="font body">001</text>
  <text x="424" y="533" class="font body">采购合同</text>
  <rect x="650" y="513" width="72" height="26" rx="13" fill="#eefaf4"/>
  <text x="686" y="532" text-anchor="middle" class="font small">完成</text>
  <text x="766" y="533" class="font body">2</text>
  <text x="856" y="533" class="font body">3</text>
  <text x="932" y="533" class="font body">88%</text>
  <text x="1020" y="533" class="font" font-size="14" fill="#275e9f">查看　导出</text>

  <line x1="328" y1="554" x2="1100" y2="554" class="line"/>
  <text x="350" y="587" class="font body">002</text>
  <text x="424" y="587" class="font body">采购合同</text>
  <rect x="650" y="567" width="72" height="26" rx="13" fill="#eefaf4"/>
  <text x="686" y="586" text-anchor="middle" class="font small">完成</text>
  <text x="766" y="587" class="font body">1</text>
  <text x="856" y="587" class="font body">2</text>
  <text x="932" y="587" class="font body">84%</text>
  <text x="1020" y="587" class="font" font-size="14" fill="#275e9f">查看　导出</text>

  <line x1="328" y1="608" x2="1100" y2="608" class="line"/>
  <text x="350" y="641" class="font body">003</text>
  <text x="424" y="641" class="font body">补充协议一</text>
  <rect x="650" y="621" width="72" height="26" rx="13" fill="#eef6ff"/>
  <text x="686" y="640" text-anchor="middle" class="font small">分析中</text>
  <text x="766" y="641" class="font muted">-</text>
  <text x="856" y="641" class="font muted">-</text>
  <text x="932" y="641" class="font muted">-</text>
  <text x="1020" y="641" class="font" font-size="14" fill="#8a96a8">等待结果</text>

  <line x1="328" y1="662" x2="1100" y2="662" class="line"/>
  <text x="350" y="695" class="font body">004</text>
  <text x="424" y="695" class="font body">服务合同</text>
  <rect x="650" y="675" width="72" height="26" rx="13" fill="#fff0ed"/>
  <text x="686" y="694" text-anchor="middle" class="font small">失败</text>
  <text x="766" y="695" class="font muted">-</text>
  <text x="856" y="695" class="font muted">-</text>
  <text x="932" y="695" class="font muted">-</text>
  <text x="1020" y="695" class="font" font-size="14" fill="#a94725">重试</text>

  <line x1="328" y1="716" x2="1100" y2="716" class="line"/>
  <text x="350" y="749" class="font body">005</text>
  <text x="424" y="749" class="font body">运维合同</text>
  <rect x="650" y="729" width="72" height="26" rx="13" fill="#f5f7fa"/>
  <text x="686" y="748" text-anchor="middle" class="font small">等待</text>
  <text x="766" y="749" class="font muted">-</text>
  <text x="856" y="749" class="font muted">-</text>
  <text x="932" y="749" class="font muted">-</text>
  <text x="1020" y="749" class="font" font-size="14" fill="#8a96a8">待分析</text>

  <rect x="1160" y="394" width="480" height="382" rx="8" class="panel"/>
  <text x="1192" y="432" class="font h2">当前合同详情摘要</text>
  <text x="1362" y="432" class="font muted">复用 v1 详情结构</text>
  <rect x="1192" y="458" width="416" height="58" rx="8" fill="#f8fbff"/>
  <text x="1214" y="482" class="font label">001_采购合同</text>
  <text x="1214" y="504" class="font small">原始文件名：采购合同.docx　合同ID：c_20260618_001</text>

  <rect x="1192" y="536" width="126" height="70" rx="8" fill="#fff7f3"/>
  <text x="1255" y="566" text-anchor="middle" class="font" font-size="22" font-weight="700" fill="#a94725">2</text>
  <text x="1255" y="590" text-anchor="middle" class="font small">合同问题</text>
  <rect x="1338" y="536" width="126" height="70" rx="8" fill="#eef6ff"/>
  <text x="1401" y="566" text-anchor="middle" class="font" font-size="22" font-weight="700" fill="#275e9f">3</text>
  <text x="1401" y="590" text-anchor="middle" class="font small">付款条目</text>
  <rect x="1482" y="536" width="126" height="70" rx="8" fill="#eefaf4"/>
  <text x="1545" y="566" text-anchor="middle" class="font" font-size="22" font-weight="700" fill="#227a48">8</text>
  <text x="1545" y="590" text-anchor="middle" class="font small">质保字段</text>

  <text x="1192" y="644" class="font label">高风险提示</text>
  <rect x="1192" y="660" width="416" height="52" rx="8" fill="#fff7f3" stroke="#f0b099"/>
  <text x="1214" y="692" class="font body">质保期在 5.4 与 7.1 条存在不一致</text>
  <rect x="1192" y="728" width="196" height="34" rx="17" fill="#2f74c0"/>
  <text x="1290" y="751" text-anchor="middle" class="font" font-size="15" font-weight="700" fill="#ffffff">查看完整详情</text>
  <rect x="1408" y="728" width="200" height="34" rx="17" fill="#eef6ff"/>
  <text x="1508" y="751" text-anchor="middle" class="font" font-size="15" font-weight="700" fill="#275e9f">导出当前合同</text>

  <rect x="296" y="806" width="1344" height="210" rx="8" class="panel"/>
  <text x="328" y="844" class="font h2">批量导出操作</text>
  <text x="462" y="844" class="font muted">用户先选范围，再选导出模式；同名合同统一通过上传序号区分</text>

  <rect x="328" y="876" width="392" height="100" rx="8" fill="#f8fbff" stroke="#d9e1ec"/>
  <text x="356" y="912" class="font label">导出范围</text>
  <text x="356" y="942" class="font body">已选择：3 份分析成功合同</text>
  <text x="356" y="966" class="font muted">失败和分析中的合同不进入默认导出</text>

  <rect x="748" y="876" width="392" height="100" rx="8" fill="#eef6ff" stroke="#7aa7d9"/>
  <text x="776" y="912" class="font label">模式 A：一个合同一个 Excel</text>
  <text x="776" y="942" class="font body">合同分析结果_001_采购合同.xlsx</text>
  <text x="776" y="966" class="font muted">适合逐份分发；后续可增强为 ZIP</text>

  <rect x="1168" y="876" width="440" height="100" rx="8" fill="#eefaf4" stroke="#9bd5b4"/>
  <text x="1196" y="912" class="font label">模式 B：批量汇总 Excel</text>
  <text x="1196" y="942" class="font body">合同批量分析结果_b_20260618_093012.xlsx</text>
  <text x="1196" y="966" class="font muted">概览、付款、质保、问题、失败清单分 Sheet</text>

  <text x="296" y="1072" class="font h2">视图二：导出中心</text>
  <text x="466" y="1072" class="font muted">从占位页升级为批次和导出记录管理页</text>

  <rect x="296" y="1098" width="632" height="310" rx="8" class="panel"/>
  <text x="328" y="1136" class="font h2">最近批量任务</text>
  <rect x="328" y="1162" width="568" height="42" fill="#eef3f8"/>
  <text x="348" y="1189" class="font label">批次ID</text>
  <text x="548" y="1189" class="font label">合同数</text>
  <text x="648" y="1189" class="font label">结果</text>
  <text x="778" y="1189" class="font label">操作</text>
  <text x="348" y="1238" class="font body">b_20260618_093012</text>
  <text x="568" y="1238" class="font body">5</text>
  <text x="648" y="1238" class="font body">3 成功 / 1 失败</text>
  <text x="778" y="1238" class="font" font-size="14" fill="#275e9f">查看　导出</text>
  <line x1="328" y1="1260" x2="896" y2="1260" class="line"/>
  <text x="348" y="1298" class="font body">b_20260617_174022</text>
  <text x="568" y="1298" class="font body">8</text>
  <text x="648" y="1298" class="font body">8 成功 / 0 失败</text>
  <text x="778" y="1298" class="font" font-size="14" fill="#275e9f">查看　导出</text>
  <line x1="328" y1="1320" x2="896" y2="1320" class="line"/>
  <text x="348" y="1358" class="font muted">列表支持按创建时间、合同数量和状态筛选</text>

  <rect x="956" y="1098" width="684" height="310" rx="8" class="panel"/>
  <text x="988" y="1136" class="font h2">导出预览</text>
  <text x="1100" y="1136" class="font muted">确认汇总文件里如何区分不同合同</text>
  <rect x="988" y="1162" width="620" height="42" fill="#eef3f8"/>
  <text x="1008" y="1189" class="font label">上传序号</text>
  <text x="1118" y="1189" class="font label">合同ID</text>
  <text x="1260" y="1189" class="font label">合同名称</text>
  <text x="1408" y="1189" class="font label">原始文件名</text>
  <text x="1008" y="1238" class="font body">001</text>
  <text x="1118" y="1238" class="font body">c_20260618_001</text>
  <text x="1260" y="1238" class="font body">采购合同</text>
  <text x="1408" y="1238" class="font body">采购合同.docx</text>
  <line x1="988" y1="1260" x2="1608" y2="1260" class="line"/>
  <text x="1008" y="1298" class="font body">002</text>
  <text x="1118" y="1298" class="font body">c_20260618_002</text>
  <text x="1260" y="1298" class="font body">采购合同</text>
  <text x="1408" y="1298" class="font body">采购合同.docx</text>
  <rect x="988" y="1338" width="190" height="38" rx="19" fill="#eef6ff"/>
  <text x="1083" y="1363" text-anchor="middle" class="font" font-size="15" font-weight="700" fill="#275e9f">导出单合同 Excel</text>
  <rect x="1198" y="1338" width="210" height="38" rx="19" fill="#2f74c0"/>
  <text x="1303" y="1363" text-anchor="middle" class="font" font-size="15" font-weight="700" fill="#ffffff">导出批量汇总 Excel</text>
  <rect x="1428" y="1338" width="180" height="38" rx="19" fill="#f5f7fa"/>
  <text x="1518" y="1363" text-anchor="middle" class="font" font-size="15" font-weight="700" fill="#607086">查看失败清单</text>

  <text x="296" y="1454" class="font muted">原型说明：本图为低保真信息架构，不表达最终视觉风格；重点确认批量上传、任务列表、单合同详情和两种导出模式是否符合预期。</text>
</svg>
